<?xml version="1.0" encoding="utf-8"?>
<!-- Generator: Adobe Illustrator 23.0.2, SVG Export Plug-In . SVG Version: 6.00 Build 0)  -->
<svg version="1.1" id="Ebene_1" xmlns="http://www.w3.org/2000/svg" xmlns:xlink="http://www.w3.org/1999/xlink" x="0px" y="0px"
	 viewBox="0 0 406 572.7" style="enable-background:new 0 0 406 572.7;" xml:space="preserve">
<style type="text/css">
	.st0{fill:#9C9A9A;}
</style>
<g id="Layer_1">
	<g>
		<path class="st0" d="M397.3,199.2C397.2,92.4,310.3,5.6,203.4,5.6c-51.7,0-100.4,20.2-137,56.8C29.8,99,9.6,147.6,9.5,199.2
			C7,310.5,104.3,441.4,162.3,519.6c10.8,14.5,20.1,27.1,27.5,37.7c3.1,4.4,8.1,7.1,13.5,7.1c5.4,0,10.5-2.7,13.5-7.1
			c7.5-10.7,16.8-23.2,27.5-37.8C302.6,441.4,399.8,310.5,397.3,199.2z M226.2,506c-8.6,11.5-16.2,21.8-22.8,31
			c-6.6-9.2-14.2-19.5-22.8-31C124.3,430.1,29.9,303,32.3,199.6v-0.3c0-45.6,17.8-88.5,50.2-120.8c32.4-32.3,75.3-50.2,120.9-50.2
			c94.3,0,171.1,76.7,171.1,171v0.3C376.9,303.1,282.6,430.1,226.2,506z"/>
		<path class="st0" d="M203.4,79.5c-63.8,0-115.6,51.9-115.6,115.6s51.9,115.6,115.6,115.6s115.6-51.9,115.6-115.6
			S267.2,79.5,203.4,79.5z M203.4,288c-51.2,0-92.9-41.7-92.9-92.9s41.7-92.9,92.9-92.9s92.9,41.7,92.9,92.9S254.6,288,203.4,288z"
			/>
	</g>
</g>
</svg>
